<?xml version="1.0" encoding="iso-8859-1"?>
<!-- Generator: Adobe Illustrator 19.0.0, SVG Export Plug-In . SVG Version: 6.00 Build 0)  -->
<svg version="1.1" id="Capa_1" xmlns="http://www.w3.org/2000/svg" xmlns:xlink="http://www.w3.org/1999/xlink" x="0px" y="0px"
	 viewBox="0 0 512 512" style="enable-background:new 0 0 512 512;" xml:space="preserve">
<circle style="fill:#455EEF;" cx="256" cy="256" r="256"/>
<path style="fill:#0053BF;" d="M85.333,208.286L60,294.394l216.765,216.765c124.822-10.021,224.373-109.572,234.394-234.394
	L452,217.606l-14.184,9.831l-49.577-49.577L85.333,208.286z"/>
<path style="fill:#FFFFFF;" d="M159.603,313.322h-57.076c-31.607,0-57.321-25.714-57.321-57.322s25.714-57.322,57.321-57.322h57.076
	v28h-57.076c-16.168,0-29.321,13.154-29.321,29.322s13.153,29.322,29.321,29.322h57.076V313.322z"/>
<path style="fill:#C8FFFA;" d="M73.205,256c0-0.032,0.002-0.063,0.002-0.095h-28c0,0.032-0.002,0.063-0.002,0.095
	c0,31.607,25.714,57.322,57.321,57.322h57.076v-28h-57.076C86.358,285.322,73.205,272.168,73.205,256z"/>
<path style="fill:#FFFFFF;" d="M409.474,313.322h-57.076v-28h57.076c16.168,0,29.321-13.154,29.321-29.322
	s-13.153-29.322-29.321-29.322h-57.076v-28h57.076c31.607,0,57.321,25.714,57.321,57.322S441.081,313.322,409.474,313.322z"/>
<path style="fill:#C8FFFA;" d="M438.792,255.905c0,0.032,0.002,0.063,0.002,0.095c0,16.168-13.153,29.322-29.321,29.322h-57.076v28
	h57.076c31.607,0,57.321-25.714,57.321-57.322c0-0.032-0.002-0.063-0.002-0.095H438.792z"/>
<path style="fill:#30FCF1;" d="M388.239,334.14c-88.159,7.814-176.319,7.814-264.478,0c-13.224-52.093-13.224-104.186,0-156.279
	c88.159-7.814,176.319-7.814,264.478,0C401.463,229.954,401.463,282.047,388.239,334.14z"/>
<path style="fill:#07E2D2;" d="M113.844,255.905c-0.008,26.078,3.297,52.156,9.917,78.235c88.159,7.814,176.319,7.814,264.478,0
	c6.62-26.078,9.925-52.157,9.917-78.235L113.844,255.905L113.844,255.905z"/>
<path style="fill:#73EFE8;" d="M117.833,206.465c-5.314,33.023-5.314,66.047,0,99.07c92.111,3.731,184.222,3.731,276.333,0
	c5.314-33.023,5.314-66.047,0-99.07C302.055,202.734,209.945,202.734,117.833,206.465z"/>
<path style="fill:#30FCF1;" d="M113.849,255.905c-0.005,16.543,1.323,33.087,3.985,49.63c92.111,3.731,184.222,3.731,276.333,0
	c2.662-16.543,3.99-33.087,3.985-49.63H113.849z"/>
<g>
</g>
<g>
</g>
<g>
</g>
<g>
</g>
<g>
</g>
<g>
</g>
<g>
</g>
<g>
</g>
<g>
</g>
<g>
</g>
<g>
</g>
<g>
</g>
<g>
</g>
<g>
</g>
<g>
</g>
</svg>
